<?xml version="1.0" standalone="no"?>
<!DOCTYPE svg PUBLIC "-//W3C//DTD SVG 20010904//EN"
 "http://www.w3.org/TR/2001/REC-SVG-20010904/DTD/svg10.dtd">
<svg version="1.0" xmlns="http://www.w3.org/2000/svg"
 width="260.000000pt" height="260.000000pt" viewBox="0 0 260.000000 260.000000"
 preserveAspectRatio="xMidYMid meet">
<metadata>
Created by potrace 1.11, written by Peter Selinger 2001-2013
</metadata>
<g transform="translate(0.000000,260.000000) scale(0.100000,-0.100000)"
fill="#000000" stroke="none">
<path d="M553 2265 c-175 -38 -321 -181 -368 -360 -12 -47 -15 -122 -15 -361
0 -166 5 -326 10 -355 22 -117 114 -251 218 -317 26 -17 75 -40 109 -51 59
-20 83 -21 507 -21 l445 0 293 -240 293 -241 3 244 2 244 48 18 c105 39 194
115 256 218 58 98 66 156 66 490 0 162 -4 319 -10 348 -34 184 -192 345 -377
384 -97 21 -1386 20 -1480 0z"/>
</g>
</svg>
