<?xml version="1.0" encoding="utf-8"?>
<!-- Generator: Adobe Illustrator 15.0.2, SVG Export Plug-In . SVG Version: 6.00 Build 0)  -->
<!DOCTYPE svg PUBLIC "-//W3C//DTD SVG 1.1//EN" "http://www.w3.org/Graphics/SVG/1.1/DTD/svg11.dtd">
<svg version="1.1" id="Layer_1" xmlns="http://www.w3.org/2000/svg" xmlns:xlink="http://www.w3.org/1999/xlink" x="0px" y="0px"
	 width="518px" height="149.04px" viewBox="0 0 518 149.04" enable-background="new 0 0 518 149.04" xml:space="preserve">
<path fill="#1F60AC" d="M0,148.68h3.95v-15.43h0.06l7.88,15.43h5.061v-20.619h-3.96v15.42H12.93l-7.87-15.42H0V148.68L0,148.68z
	 M21.53,148.68h4.141v-9.039h8.27v9.039h4.141v-20.619H33.94v8.33h-8.27v-8.33H21.53V148.68L21.53,148.68z M54.33,128.439
	c-1.5-0.5-3.16-0.729-4.931-0.729c-3.63,0-7.199,1.69-7.199,6.3c0,6.82,9.029,5.2,9.029,9.12c0,1.87-2.1,2.66-3.649,2.66
	c-1.63,0-3.261-0.5-4.67-1.271l-0.391,3.73c2.04,0.5,3.05,0.79,5.28,0.79c4.17,0,7.75-1.71,7.75-6.24c0-6.899-9.04-5.39-9.04-8.979
	c0-2.24,1.82-2.87,3.25-2.87c1.44,0,2.9,0.329,4.2,0.89L54.33,128.439L54.33,128.439z M67.5,148.68h4.14v-9.039h6.97v-3.25h-6.97
	v-5.08h7.32v-3.25H67.5V148.68L67.5,148.68z M80.95,141.189c0,4.36,2.93,7.841,7.939,7.841c5.05,0,7.98-3.48,7.98-7.841
	c0-5.029-3.46-8.08-7.98-8.08C84.41,133.109,80.95,136.16,80.95,141.189L80.95,141.189z M85.09,140.71c0-2.28,1.229-4.53,3.8-4.53
	c2.6,0,3.85,2.19,3.85,4.53c0,2.54-0.81,5.25-3.85,5.25C85.88,145.96,85.09,143.21,85.09,140.71L85.09,140.71z M113.95,133.46
	h-3.961v7.44c0,1.949-0.63,5.05-3.489,5.05c-2.54,0-2.57-2.511-2.57-4.36v-8.13h-3.95v9.61c0,3.43,1.561,5.96,5.17,5.96
	c2.061,0,3.771-0.94,4.98-2.41h0.06v2.069h3.75V133.46H113.95z M118.03,148.68h3.95v-7.439c0-1.95,0.62-5.061,3.48-5.061
	c2.54,0,2.58,2.521,2.58,4.37v8.13h3.949v-9.6c0-3.42-1.56-5.971-5.17-5.971c-2.069,0-3.75,0.67-4.989,2.431h-0.061v-2.07h-3.75
	v15.21H118.03z M139.23,141.03c0-2.04,0.721-4.851,3.28-4.851c2.54,0,3.55,2.721,3.55,4.851c0,2.159-0.859,4.93-3.49,4.93
	C139.97,145.96,139.23,143.12,139.23,141.03L139.23,141.03z M146.21,148.68h3.84v-22.16h-3.96v8.73h-0.061
	c-1.18-1.471-2.569-2.141-4.56-2.141c-4.66,0-6.38,3.721-6.38,7.92c0,4.171,1.72,8,6.38,8c1.87,0,3.49-0.579,4.68-2.06h0.061V148.68
	L146.21,148.68z M154.92,137.65c1.33-0.99,3.02-1.65,4.71-1.65c2.32,0,3.41,0.83,3.41,3.28h-2.181c-1.659,0-3.6,0.149-5.119,0.89
	c-1.511,0.73-2.591,2.07-2.591,4.34c0,2.9,2.63,4.51,5.311,4.51c1.79,0,3.78-0.939,4.7-2.619h0.06c0.03,0.47,0.03,1.479,0.17,2.27
	h3.48c-0.08-1.18-0.15-2.25-0.17-3.4c-0.03-1.129-0.051-2.27-0.051-3.81v-1.96c0-4.48-1.92-6.41-6.56-6.41
	c-1.68,0-3.75,0.44-5.29,1.16L154.92,137.65L154.92,137.65z M156.93,144.28c0-2.33,2.62-2.63,4.39-2.63h1.721
	c0,1.18-0.181,2.27-0.83,3.13c-0.61,0.829-1.55,1.36-2.771,1.36C158.03,146.141,156.93,145.58,156.93,144.28L156.93,144.28z
	 M171.85,144.09c0,3.02,1.72,4.93,4.82,4.93c1.18,0,2.1-0.109,2.92-0.35l-0.12-3.13c-0.41,0.271-1.09,0.41-1.8,0.41
	c-1.5,0-1.86-1.21-1.86-2.511v-7.09h3.521v-2.899h-3.521v-4.31l-3.95,1.27v3.04h-2.93v2.899h2.93v7.74H171.85z M182.13,148.68h3.97
	v-15.21h-3.97V148.68L182.13,148.68z M182.13,130.689h3.97V126.9h-3.97V130.689L182.13,130.689z M189.28,141.189
	c0,4.36,2.931,7.841,7.94,7.841c5.05,0,7.98-3.48,7.98-7.841c0-5.029-3.461-8.08-7.98-8.08
	C192.74,133.109,189.28,136.16,189.28,141.189L189.28,141.189z M193.42,140.71c0-2.28,1.229-4.53,3.8-4.53
	c2.6,0,3.84,2.19,3.84,4.53c0,2.54-0.79,5.25-3.84,5.25C194.21,145.96,193.42,143.21,193.42,140.71L193.42,140.71z M208.31,148.68
	h3.96v-7.439c0-1.95,0.62-5.061,3.47-5.061c2.551,0,2.58,2.521,2.58,4.37v8.13h3.96v-9.6c0-3.42-1.56-5.971-5.17-5.971
	c-2.06,0-3.75,0.67-5,2.431h-0.05v-2.07h-3.75V148.68L208.31,148.68z M238.67,148.68h4.14V131.3h5.92v-3.25h-15.96v3.25h5.9V148.68
	L238.67,148.68z M248.38,148.68h3.95v-5.58c0-2.189,0-6.199,3.22-6.199c0.71,0,1.41,0.109,1.78,0.319v-3.989
	c-0.42-0.11-0.83-0.11-1.21-0.11c-2.37,0-3.99,2.399-4.17,3.81h-0.061v-3.449h-3.5v15.199H248.38z M273.75,133.46h-3.96v7.44
	c0,1.949-0.62,5.05-3.48,5.05c-2.54,0-2.57-2.511-2.57-4.36v-8.13h-3.96v9.61c0,3.43,1.551,5.96,5.16,5.96
	c2.08,0,3.78-0.94,4.99-2.41h0.05v2.069h3.76V133.46H273.75z M287.13,133.67c-1.25-0.27-2.45-0.561-4.311-0.561
	c-3.109,0-5.97,1.44-5.97,4.73c0,5.49,6.891,3.46,6.891,6.44c0,1.47-1.61,1.86-2.601,1.86c-1.36,0-2.66-0.391-3.91-1l-0.239,3.239
	c1.449,0.39,2.989,0.64,4.489,0.64c3.23,0,6.38-1.41,6.38-4.959c0-5.49-6.89-3.961-6.89-6.371c0-1.31,1.28-1.689,2.34-1.689
	c1.45,0,2.33,0.23,3.54,0.65L287.13,133.67L287.13,133.67z M292.25,144.09c0,3.02,1.72,4.93,4.81,4.93c1.19,0,2.09-0.109,2.92-0.35
	l-0.12-3.13c-0.409,0.271-1.08,0.41-1.79,0.41c-1.52,0-1.869-1.21-1.869-2.511v-7.09h3.51v-2.899h-3.51v-4.31l-3.96,1.27v3.04
	h-2.931v2.899h2.931v7.74H292.25z"/>
<path fill="#231F20" d="M0,111.75h5.93V88.609h0.09l11.83,23.141h7.58V80.82H19.5v23.13h-0.09L7.62,80.82H0V111.75L0,111.75z
	 M29.42,100.5c0,6.55,4.39,11.78,11.92,11.78c7.58,0,11.97-5.23,11.97-11.78c0-7.54-5.189-12.109-11.97-12.109
	C34.62,88.4,29.42,92.96,29.42,100.5L29.42,100.5z M35.63,99.78c0-3.41,1.85-6.78,5.71-6.78c3.91,0,5.77,3.28,5.77,6.78
	c0,3.81-1.199,7.899-5.77,7.899C36.83,107.68,35.63,103.55,35.63,99.78L35.63,99.78z M57.21,111.75h5.93v-8.38
	c0-3.29,0-9.31,4.84-9.31c1.061,0,2.12,0.18,2.65,0.479v-5.979c-0.62-0.181-1.25-0.181-1.82-0.181c-3.55,0-5.979,3.58-6.25,5.72
	h-0.09V88.91H57.2v22.84H57.21z M78.93,104.88c0,4.521,2.56,7.4,7.22,7.4c1.771,0,3.141-0.171,4.391-0.53l-0.181-4.7
	c-0.62,0.4-1.64,0.62-2.699,0.62c-2.261,0-2.79-1.83-2.79-3.77V93.27h5.279v-4.35H84.87v-6.46l-5.931,1.9v4.56h-4.39v4.35h4.39
	v11.61H78.93z M94.2,111.75h5.949v-11.16c0-2.93,0.931-7.58,5.23-7.58c3.8,0,3.85,3.77,3.85,6.551v12.189h5.94V97.34
	c0-5.13-2.351-8.949-7.76-8.949c-3.101,0-5.671,1.43-7.181,3.629h-0.08v-13.5H94.2V111.75L94.2,111.75z M142.25,88.92h-5.94v11.17
	c0,2.93-0.93,7.59-5.22,7.59c-3.811,0-3.86-3.77-3.86-6.56v-12.2h-5.93v14.41c0,5.14,2.35,8.95,7.76,8.95
	c3.101,0,5.66-1.421,7.48-3.64h0.09v3.1h5.63V88.92H142.25z M148.26,111.75h5.95v-11.08c0-2.97,0.49-7.67,4.43-7.67
	c3.42,0,3.42,3.02,3.42,5.141v13.6h5.93v-11.08c0-2.971,0.49-7.67,4.431-7.67c3.42,0,3.42,3.02,3.42,5.14v13.601h5.939V97.34
	c0-5.09-1.59-8.949-7.229-8.949c-2.79,0-5.76,1.289-7.14,4.02c-1.28-2.82-3.54-4.02-6.73-4.02c-2.22,0-4.92,0.93-6.78,3.719h-0.09
	V88.92h-5.55V111.75L148.26,111.75z M193.75,100.28c0-3.2,1.5-7.271,5.31-7.271c3.851,0,4.91,4.21,4.91,7.271
	c0,3.14-1.1,7.399-5,7.399C195.02,107.68,193.75,103.51,193.75,100.28L193.75,100.28z M187.76,111.75h5.76v-2.79h0.09
	c1.73,2.44,4.48,3.33,7,3.33c6.99,0,9.57-5.771,9.57-12.01c0-6.3-2.58-11.88-9.57-11.88c-3.1,0-5.189,1.289-6.819,3.459h-0.09V78.52
	h-5.931v33.23H187.76z M214.96,111.75h5.95v-8.38c0-3.29,0-9.31,4.829-9.31c1.07,0,2.131,0.18,2.66,0.479v-5.979
	c-0.62-0.181-1.239-0.181-1.819-0.181c-3.54,0-5.98,3.58-6.24,5.72h-0.09V88.91h-5.271v22.84H214.96z M232.2,111.75h5.939V88.92
	H232.2V111.75L232.2,111.75z M232.2,84.76h5.939v-5.67H232.2V84.76L232.2,84.76z M245.59,95.22c1.99-1.5,4.52-2.479,7.04-2.479
	c3.5,0,5.14,1.24,5.14,4.93h-3.28c-2.479,0-5.409,0.221-7.67,1.32c-2.25,1.109-3.89,3.1-3.89,6.52c0,4.34,3.94,6.78,7.98,6.78
	c2.699,0,5.67-1.42,7.029-3.94h0.101c0.05,0.7,0.05,2.211,0.26,3.41h5.229c-0.13-1.77-0.22-3.369-0.26-5.1
	c-0.05-1.68-0.1-3.41-0.1-5.71V98.02c0-6.739-2.88-9.619-9.83-9.619c-2.53,0-5.63,0.67-7.93,1.729L245.59,95.22L245.59,95.22z
	 M248.6,105.141c0-3.5,3.94-3.94,6.61-3.94h2.56c0,1.77-0.27,3.409-1.24,4.69c-0.92,1.25-2.34,2.049-4.159,2.049
	C250.23,107.939,248.6,107.1,248.6,105.141L248.6,105.141z M281.88,111.75h6.2V98.18h12.41v13.57h6.21V80.82h-6.21v12.5h-12.41
	v-12.5h-6.2V111.75L281.88,111.75z M317.55,98.1c0.26-3.06,1.95-5.359,5.27-5.359c3.33,0,4.65,2.479,4.83,5.359H317.55L317.55,98.1z
	 M331.65,105.63c-2.229,1.25-4.699,2.32-7.58,2.32c-3.68,0-6.26-2.091-6.52-5.761h15.77c0-7.97-2.38-13.779-10.85-13.779
	c-7.08,0-10.59,5.449-10.59,12.05c0,7.5,4.39,11.84,11.93,11.84c3.19,0,5.66-0.62,7.851-1.819v-4.851H331.65z M339.18,95.22
	c1.99-1.5,4.52-2.479,7.04-2.479c3.5,0,5.14,1.24,5.14,4.93h-3.29c-2.479,0-5.399,0.221-7.659,1.32c-2.261,1.109-3.9,3.1-3.9,6.52
	c0,4.34,3.94,6.78,7.97,6.78c2.7,0,5.67-1.42,7.04-3.94h0.09c0.04,0.7,0.04,2.211,0.271,3.41h5.22c-0.12-1.77-0.21-3.369-0.26-5.1
	c-0.05-1.68-0.101-3.41-0.101-5.71V98.02c0-6.739-2.869-9.619-9.829-9.619c-2.53,0-5.631,0.67-7.931,1.729L339.18,95.22
	L339.18,95.22z M342.19,105.141c0-3.5,3.94-3.94,6.601-3.94h2.569c0,1.77-0.27,3.409-1.25,4.69c-0.93,1.25-2.34,2.049-4.18,2.049
	C343.84,107.939,342.19,107.1,342.19,105.141L342.19,105.141z M362.75,111.75h5.939V78.52h-5.939V111.75L362.75,111.75z
	 M376.89,104.88c0,4.521,2.57,7.4,7.23,7.4c1.77,0,3.14-0.171,4.39-0.53l-0.18-4.7c-0.62,0.4-1.65,0.62-2.7,0.62
	c-2.26,0-2.8-1.83-2.8-3.77V93.27h5.27v-4.35h-5.27v-6.46l-5.94,1.9v4.56h-4.39v4.35h4.39V104.88L376.89,104.88z M392.17,111.75
	h5.939v-11.16c0-2.93,0.931-7.58,5.23-7.58c3.82,0,3.86,3.77,3.86,6.551v12.189h5.939V97.34c0-5.13-2.34-8.949-7.75-8.949
	c-3.1,0-5.67,1.43-7.17,3.629h-0.1v-13.5h-5.94v33.23H392.17z M434.579,89.15c-1.63-0.49-3.359-0.76-5.75-0.76
	c-7.14,0-11.039,5.229-11.039,11.829c0,6.97,3.76,12.061,11.249,12.061c2.44,0,4.221-0.22,5.95-0.761l-0.26-4.92
	c-1.021,0.44-2.88,1.07-4.57,1.07c-4.17,0-6.159-3.24-6.159-7.46c0-4.29,2.35-7.22,6.029-7.22c1.83,0,2.971,0.359,4.03,0.84
	L434.579,89.15L434.579,89.15z M440.13,95.22c1.979-1.5,4.51-2.479,7.04-2.479c3.51,0,5.14,1.24,5.14,4.93h-3.28
	c-2.479,0-5.41,0.221-7.67,1.32c-2.26,1.109-3.899,3.1-3.899,6.52c0,4.34,3.939,6.78,7.979,6.78c2.69,0,5.67-1.42,7.04-3.94h0.08
	c0.05,0.7,0.05,2.211,0.27,3.41h5.23c-0.13-1.77-0.22-3.369-0.26-5.1c-0.04-1.68-0.09-3.41-0.09-5.71V98.02
	c0-6.739-2.87-9.619-9.841-9.619c-2.52,0-5.619,0.67-7.92,1.729L440.13,95.22L440.13,95.22z M443.14,105.141
	c0-3.5,3.95-3.94,6.61-3.94h2.569c0,1.77-0.27,3.409-1.24,4.69c-0.93,1.25-2.35,2.049-4.17,2.049
	C444.77,107.939,443.14,107.1,443.14,105.141L443.14,105.141z M463.699,111.75h5.94v-8.38c0-3.29,0-9.31,4.83-9.31
	c1.069,0,2.13,0.18,2.66,0.479v-5.979c-0.62-0.181-1.25-0.181-1.82-0.181c-3.55,0-5.99,3.58-6.25,5.72h-0.09V88.91h-5.261v22.84
	H463.699z M484.23,98.1c0.26-3.06,1.94-5.359,5.271-5.359c3.319,0,4.649,2.479,4.829,5.359H484.23L484.23,98.1z M498.32,105.63
	c-2.22,1.25-4.71,2.32-7.58,2.32c-3.68,0-6.25-2.091-6.51-5.761H500c0-7.97-2.391-13.779-10.86-13.779
	c-7.09,0-10.58,5.449-10.58,12.05c0,7.5,4.38,11.84,11.91,11.84c3.189,0,5.67-0.62,7.85-1.819V105.63L498.32,105.63z"/>
<path fill="#1F60AC" d="M155.97,62.81V0H0v62.81H155.97L155.97,62.81z M62.71,6.06L51.94,56.62H35.04L24.43,21.64h-0.14l-7.08,34.97
	H4.4L15.25,6.06H32.2l10.42,35.06h0.14L49.9,6.06H62.71L62.71,6.06z M111.04,6.06L100.48,56.62H86.87l4.52-21.65h-16.1L70.78,56.62
	h-13.6L67.73,6.06h13.61l-4,19.34h16.08l4-19.34H111.04L111.04,6.06z M150.13,7.44l-3.28,10.06c-2.63-1.23-6.189-2.31-11.21-2.31
	c-5.39,0-9.75,0.8-9.75,4.86c0,7.16,19.72,4.49,19.72,19.84c0,13.98-13.029,17.6-24.83,17.6c-5.229,0-11.279-1.23-15.72-2.6
	l3.21-10.29c2.681,1.74,8.08,2.9,12.51,2.9c4.24,0,10.841-0.8,10.841-6.01c0-8.12-19.721-5.08-19.721-19.33
	c0-13.04,11.511-16.95,22.641-16.95C140.81,5.2,146.71,5.86,150.13,7.44L150.13,7.44z"/>
</svg>
